<svg xmlns="http://www.w3.org/2000/svg" fill="none" viewBox="0 0 27 28">
  <path fill="currentColor" d="M26.573 20.7a1.44 1.44 0 0 1 0 2.047l-4.82 4.828c-.28.28-.656.425-1.023.425a1.454 1.454 0 0 1-1.449-1.448 1.441 1.441 0 0 1 .427-1.024l2.353-2.356h-4.705c-.184 0-.367-.038-.53-.106h-.02a1.569 1.569 0 0 1-.473-.319l-7.289-7.3H1.446A1.443 1.443 0 0 1 0 14c0-.801.646-1.448 1.446-1.448h7.598l7.29-7.3c.134-.135.298-.241.472-.318h.02c.163-.068.337-.106.53-.106h4.705L19.708 2.47a1.441 1.441 0 0 1 0-2.047c.57-.56 1.485-.57 2.044 0l4.821 4.827a1.44 1.44 0 0 1 0 2.047l-4.82 4.828c-.28.28-.656.425-1.023.425a1.454 1.454 0 0 1-1.449-1.448 1.44 1.44 0 0 1 .427-1.024l2.353-2.356h-4.108L11.686 14l6.267 6.277h4.108l-2.353-2.356a1.441 1.441 0 0 1 0-2.047c.57-.56 1.485-.57 2.044 0l4.821 4.827Z"/>
</svg>
